Coordinates
version=1
nRows=32
nColumns=18
inDegrees=yes

Units are S.I. units (second, meters, Newtons, ...)
If the header above contains a line with 'inDegrees', this indicates whether rotational values are in degrees (yes) or radians (no).

endheader
time	ground_thorax_rot_x	ground_thorax_rot_y	ground_thorax_rot_z	ground_thorax_tx	ground_thorax_ty	ground_thorax_tz	clav_prot	clav_elev	scapula_abduction	scapula_elevation	scapula_upward_rot	scapula_winging	plane_elv	shoulder_elv	axial_rot	elbow_flexion	pro_sup
      0.00000000	      3.44204964	     -3.71245565	     -7.75048147	     -0.00567588	      0.00487392	      0.00247086	    -28.01557652	     -3.57968620	    -21.65065798	     -3.98057300	     13.56766963	      4.77016759	    -30.04897762	     17.86755919	     32.92614934	      0.00000000	     34.32000000
      0.01000000	      3.44172731	     -3.71358125	     -7.75162618	     -0.00577375	      0.00492031	      0.00245738	    -28.01577175	     -3.57906633	    -21.65124630	     -3.98007174	     13.56750872	      4.76996709	    -30.04926040	     17.86812903	     32.92616811	      0.00000000	     34.32000000
      0.02000000	      3.43062235	     -3.75112942	     -7.77182249	     -0.00572644	      0.00487645	      0.00250744	    -28.02327731	     -3.55900667	    -21.67104787	     -3.96455629	     13.56475858	      4.76309574	    -30.06207941	     17.88541918	     32.92573469	      0.00000000	     34.32000000
      0.03000000	      3.42997521	     -3.75186264	     -7.77257313	     -0.00579881	      0.00490982	      0.00253434	    -28.02346837	     -3.55846339	    -21.67139483	     -3.96421089	     13.56497334	      4.76283826	    -30.06228472	     17.88607679	     32.92574646	      0.00000000	     34.32000000
      0.04000000	      3.41749861	     -3.77847884	     -7.78722195	     -0.00574930	      0.00484939	      0.00255106	    -28.03073193	     -3.54254109	    -21.68508350	     -3.95386556	     13.56999106	      4.75537226	    -30.07199528	     17.90694381	     32.92571334	      0.00000000	     34.32000000
      0.05000000	      3.41769528	     -3.77937547	     -7.78774369	     -0.00579968	      0.00485345	      0.00253893	    -28.03087098	     -3.54221687	    -21.68554092	     -3.95358093	     13.56979625	      4.75531885	    -30.07232733	     17.90730829	     32.92569742	      0.00000000	     34.32000000
      0.06000000	      3.42901444	     -3.80758583	     -7.80421290	     -0.00573465	      0.00480319	      0.00261393	    -28.03494390	     -3.52996849	    -21.70096948	     -3.94219602	     13.56092991	      4.75298815	    -30.08576477	     17.92582185	     32.92552226	      0.00000000	     34.32000000
      0.07000000	      3.42926817	     -3.80761751	     -7.80403786	     -0.00574171	      0.00477124	      0.00263568	    -28.03495824	     -3.53003525	    -21.70094214	     -3.94226515	     13.56100716	      4.75302319	    -30.08587412	     17.92611798	     32.92552379	      0.00000000	     34.32000000
      0.08000000	      3.42960746	     -3.80766411	     -7.80387647	     -0.00575822	      0.00473407	      0.00266111	    -28.03497825	     -3.53015043	    -21.70089333	     -3.94237696	     13.56109311	      4.75303639	    -30.08600425	     17.92650915	     32.92553564	      0.00000000	     34.32000000
      0.09000000	      3.43001367	     -3.80801065	     -7.80393950	     -0.00580466	      0.00471808	      0.00267075	    -28.03501492	     -3.53018966	    -21.70094541	     -3.94240882	     13.56109065	      4.75304500	    -30.08620485	     17.92694831	     32.92555012	      0.00000000	     34.32000000
      0.10000000	      3.43074462	     -3.80864842	     -7.80403872	     -0.00585065	      0.00470852	      0.00264706	    -28.03503967	     -3.53025829	    -21.70111481	     -3.94239713	     13.56083903	      4.75312797	    -30.08647400	     17.92723174	     32.92555606	      0.00000000	     34.32000000
      0.11000000	      3.46736272	     -3.82863496	     -7.79784897	     -0.00580454	      0.00475356	      0.00267667	    -28.03264999	     -3.53788018	    -21.70068225	     -3.94550273	     13.55108527	      4.75840899	    -30.10029943	     17.94758892	     32.92705643	      0.00000000	     34.32000000
      0.12000000	      3.46752974	     -3.82859954	     -7.79766270	     -0.00577986	      0.00474883	      0.00265928	    -28.03260868	     -3.53797502	    -21.70055778	     -3.94557721	     13.55111614	      4.75843785	    -30.10038196	     17.94779071	     32.92708424	      0.00000000	     34.32000000
      0.13000000	      3.46708540	     -3.82828814	     -7.79775093	     -0.00574839	      0.00477871	      0.00268192	    -28.03255953	     -3.53781522	    -21.70034636	     -3.94552946	     13.55141311	      4.75831678	    -30.10042241	     17.94826911	     32.92713204	      0.00000000	     34.32000000
      0.14000000	      3.46531400	     -3.81741364	     -7.80523314	     -0.00569934	      0.00478286	      0.00264823	    -28.02731121	     -3.52708357	    -21.68903591	     -3.93943019	     13.56081638	      4.75311709	    -30.12131043	     17.99065383	     32.92963699	      0.00000000	     34.32000000
      0.15000000	      3.46511750	     -3.81765410	     -7.80564437	     -0.00571523	      0.00482072	      0.00264044	    -28.02732702	     -3.52677081	    -21.68916230	     -3.93918689	     13.56079501	      4.75301819	    -30.12153167	     17.99097590	     32.92964370	      0.00000000	     34.32000000
      0.16000000	      3.46514841	     -3.81828554	     -7.80624206	     -0.00574649	      0.00483283	      0.00261809	    -28.02739993	     -3.52640039	    -21.68950824	     -3.93885541	     13.56058965	      4.75293964	    -30.12186995	     17.99139418	     32.92965304	      0.00000000	     34.32000000
      0.17000000	      3.46564013	     -3.82014089	     -7.80771118	     -0.00578852	      0.00482633	      0.00257992	    -28.02759914	     -3.52553977	    -21.69057082	     -3.93799387	     13.55975522	      4.75284385	    -30.12282879	     17.99240151	     32.92967511	      0.00000000	     34.32000000
      0.18000000	      3.47687604	     -3.84782451	     -7.82601528	     -0.00571154	      0.00477311	      0.00261316	    -28.02973479	     -3.51435689	    -21.70668277	     -3.92539578	     13.54366658	      4.75298829	    -30.13953091	     18.00600629	     32.92986104	      0.00000000	     34.32000000
      0.19000000	      3.47735526	     -3.84816411	     -7.82584997	     -0.00572625	      0.00475066	      0.00259123	    -28.02973410	     -3.51448112	    -21.70680762	     -3.92541733	     13.54339123	      4.75310361	    -30.13978136	     18.00596941	     32.92984871	      0.00000000	     34.32000000
      0.20000000	      3.47776465	     -3.84849106	     -7.82584861	     -0.00573903	      0.00474578	      0.00258683	    -28.02971139	     -3.51451578	    -21.70694288	     -3.92536020	     13.54307781	      4.75319745	    -30.14006462	     18.00600005	     32.92984240	      0.00000000	     34.32000000
      0.21000000	      3.47792792	     -3.84907039	     -7.82630836	     -0.00577364	      0.00476988	      0.00259402	    -28.02972438	     -3.51426892	    -21.70722509	     -3.92508689	     13.54275021	      4.75319833	    -30.14042411	     18.00628750	     32.92984977	      0.00000000	     34.32000000
      0.22000000	      3.47857013	     -3.85078193	     -7.82744975	     -0.00582877	      0.00477497	      0.00260790	    -28.02981332	     -3.51364001	    -21.70807805	     -3.92437647	     13.54184679	      4.75321070	    -30.14137262	     18.00721169	     32.92988090	      0.00000000	     34.32000000
      0.23000000	      3.49566182	     -3.87665531	     -7.83962563	     -0.00575823	      0.00472156	      0.00270306	    -28.03023457	     -3.50683027	    -21.71997502	     -3.91505486	     13.52595840	      4.75494759	    -30.15878348	     18.02429123	     32.93063309	      0.00000000	     34.32000000
      0.24000000	      3.49615360	     -3.87666898	     -7.83927411	     -0.00574411	      0.00469193	      0.00269376	    -28.03017279	     -3.50704904	    -21.71990473	     -3.91516590	     13.52578755	      4.75509034	    -30.15899803	     18.02435931	     32.93063889	      0.00000000	     34.32000000
      0.25000000	      3.49685581	     -3.87687090	     -7.83912460	     -0.00572890	      0.00469312	      0.00265712	    -28.03007638	     -3.50719436	    -21.71996597	     -3.91515192	     13.52533579	      4.75526511	    -30.15930895	     18.02423959	     32.93062876	      0.00000000	     34.32000000
      0.26000000	      3.49760541	     -3.87700428	     -7.83894657	     -0.00570183	      0.00471368	      0.00261088	    -28.02992229	     -3.50734855	    -21.72000739	     -3.91510504	     13.52474782	      4.75548496	    -30.15961802	     18.02386793	     32.93060371	      0.00000000	     34.32000000
      0.27000000	      3.49828559	     -3.87655502	     -7.83828610	     -0.00565125	      0.00470766	      0.00259820	    -28.02968301	     -3.50775948	    -21.71973275	     -3.91529364	     13.52433310	      4.75575576	    -30.15976847	     18.02332323	     32.93057903	      0.00000000	     34.32000000
      0.28000000	      3.49864437	     -3.87567583	     -7.83743087	     -0.00562582	      0.00467518	      0.00264281	    -28.02944000	     -3.50829805	    -21.71918829	     -3.91568157	     13.52430858	      4.75596960	    -30.15977629	     18.02304095	     32.93058071	      0.00000000	     34.32000000
      0.29000000	      3.49863056	     -3.87516164	     -7.83711394	     -0.00566649	      0.00465959	      0.00270195	    -28.02931778	     -3.50856317	    -21.71879599	     -3.91592611	     13.52450186	      4.75602309	    -30.15984283	     18.02332895	     32.93061569	      0.00000000	     34.32000000
      0.30000000	      3.49860764	     -3.87547065	     -7.83745540	     -0.00572127	      0.00468613	      0.00269281	    -28.02933513	     -3.50843996	    -21.71886746	     -3.91582971	     13.52448842	      4.75598406	    -30.16010975	     18.02385485	     32.93065715	      0.00000000	     34.32000000
      0.31000000	      3.49874728	     -3.87611380	     -7.83790457	     -0.00571334	      0.00473272	      0.00261654	    -28.02939712	     -3.50817303	    -21.71922208	     -3.91555138	     13.52418730	      4.75596532	    -30.16048759	     18.02417374	     32.93068349	      0.00000000	     34.32000000
